<svg width="24" height="24" viewBox="0 0 24 24" fill="none" xmlns="http://www.w3.org/2000/svg">
<path d="M5.70711 11.4929C5.31658 11.1024 4.68342 11.1024 4.29289 11.4929C3.90237 11.8834 3.90237 12.5166 4.29289 12.9071L5.70711 11.4929ZM8.9 16.1L8.19289 16.8071C8.38043 16.9946 8.63478 17.1 8.9 17.1C9.16522 17.1 9.41957 16.9946 9.60711 16.8071L8.9 16.1ZM18.7071 7.70711C19.0976 7.31658 19.0976 6.68342 18.7071 6.29289C18.3166 5.90237 17.6834 5.90237 17.2929 6.29289L18.7071 7.70711ZM4.29289 12.9071L8.19289 16.8071L9.60711 15.3929L5.70711 11.4929L4.29289 12.9071ZM9.60711 16.8071L18.7071 7.70711L17.2929 6.29289L8.19289 15.3929L9.60711 16.8071Z" fill="#7B8896"/>
</svg>

