<svg width="14" height="15" viewBox="0 0 14 15" fill="none" xmlns="http://www.w3.org/2000/svg">
<path fill-rule="evenodd" clip-rule="evenodd" d="M13.6667 7.50016C13.6667 11.1821 10.6819 14.1668 7.00004 14.1668C3.31815 14.1668 0.333374 11.1821 0.333374 7.50016C0.333374 3.81827 3.31815 0.833496 7.00004 0.833496C10.6819 0.833496 13.6667 3.81827 13.6667 7.50016ZM7.95242 11.3097C7.95242 11.8357 7.52603 12.2621 7.00004 12.2621C6.47405 12.2621 6.04766 11.8357 6.04766 11.3097C6.04766 10.7837 6.47405 10.3573 7.00004 10.3573C7.52603 10.3573 7.95242 10.7837 7.95242 11.3097ZM7.00004 2.73826C6.47405 2.73826 6.04766 3.16465 6.04766 3.69064V8.77C6.04766 9.29599 6.47405 9.72239 7.00004 9.72239C7.52603 9.72239 7.95242 9.29599 7.95242 8.77V3.69064C7.95242 3.16465 7.52603 2.73826 7.00004 2.73826Z" fill="#EC105F"/>
</svg>
