<svg width="24" height="24" viewBox="0 0 24 24" fill="none" xmlns="http://www.w3.org/2000/svg">
<path fill-rule="evenodd" clip-rule="evenodd" d="M3.06247 11.5C3.45192 12.4311 4.33922 13.3902 5.62895 14.1966C5.22506 13.3752 5 12.462 5 11.5C5 10.538 5.22506 9.62482 5.62895 8.80337C4.33922 9.6098 3.45192 10.5689 3.06247 11.5ZM19 11.5C19 12.314 18.8389 13.093 18.5446 13.8111C19.4438 13.1336 20.2054 12.342 20.8021 11.5C20.2391 10.7054 19.5292 9.95579 18.6954 9.30458L20.1182 7.8818C21.2389 8.79228 22.1639 9.85565 22.8522 10.9768C23.0493 11.2978 23.0493 11.7022 22.8522 12.0232C20.8705 15.251 16.9269 18 12 18C11.3731 18 10.7469 17.9554 10.1292 17.8708L12 16C14.9036 16 17 13.8483 17 11.5C17 11.3416 16.9905 11.1842 16.9718 11.0282L18.6194 9.38056C18.8661 10.0449 19 10.7579 19 11.5ZM9.565 15.435C7.99566 14.6433 7 13.1183 7 11.5C7 9.15171 9.09641 7 12 7C13.7486 7 15.2044 7.78034 16.086 8.91402L18.335 6.66495C16.5256 5.63999 14.3772 5 12 5C9.55122 5 7.11281 5.68093 5.15267 6.76419C3.21891 7.83286 1.6052 9.37843 1.04403 11.2065C0.985325 11.3978 0.985325 11.6022 1.04403 11.7935C1.6052 13.6216 3.21891 15.1671 5.15267 16.2358C5.93033 16.6656 6.78326 17.032 7.68226 17.3177L9.565 15.435Z" fill="#7B8896"/>
<path fill-rule="evenodd" clip-rule="evenodd" d="M20.7071 3.29289C21.0976 3.68342 21.0976 4.31658 20.7071 4.70711L5.70711 19.7071C5.31658 20.0976 4.68342 20.0976 4.29289 19.7071C3.90237 19.3166 3.90237 18.6834 4.29289 18.2929L19.2929 3.29289C19.6834 2.90237 20.3166 2.90237 20.7071 3.29289Z" fill="#7B8896"/>
</svg>
