<svg width="24" height="24" viewBox="0 0 24 24" fill="none" xmlns="http://www.w3.org/2000/svg">
<path fill-rule="evenodd" clip-rule="evenodd" d="M12 16C14.9036 16 17 13.8483 17 11.5C17 9.15171 14.9036 7 12 7C9.09641 7 7 9.15171 7 11.5C7 13.8483 9.09641 16 12 16ZM12 18C15.866 18 19 15.0899 19 11.5C19 7.91015 15.866 5 12 5C8.13401 5 5 7.91015 5 11.5C5 15.0899 8.13401 18 12 18Z" fill="#7B8896"/>
<path fill-rule="evenodd" clip-rule="evenodd" d="M10.8681 11.5555C10.9269 12.1779 11.4791 12.6349 12.1015 12.5762C12.724 12.5175 13.181 11.9653 13.1223 11.3428C13.0905 11.0063 12.9159 10.719 12.6606 10.5333C12.2141 10.2083 12.1155 9.58288 12.4404 9.13631C12.7654 8.68974 13.3908 8.59115 13.8374 8.91611C14.5369 9.42509 15.0255 10.2235 15.1134 11.1549C15.2759 12.8771 14.0116 14.4049 12.2894 14.5674C10.5673 14.7298 9.03948 13.4655 8.87699 11.7434C8.82511 11.1935 9.22879 10.7057 9.77863 10.6538C10.3285 10.602 10.8163 11.0056 10.8681 11.5555Z" fill="#7B8896"/>
<path fill-rule="evenodd" clip-rule="evenodd" d="M3.06247 11.5C3.49956 12.545 4.56371 13.6252 6.12006 14.4853C7.79628 15.4117 9.90332 16 12 16C15.8919 16 19.0544 13.9664 20.8021 11.5C19.0544 9.03361 15.8919 7 12 7C9.90332 7 7.79628 7.58831 6.12006 8.51466C4.56371 9.37477 3.49956 10.455 3.06247 11.5ZM5.15267 6.76419C7.11281 5.68093 9.55122 5 12 5C16.9269 5 20.8705 7.74896 22.8522 10.9768C23.0493 11.2978 23.0493 11.7022 22.8522 12.0232C20.8705 15.251 16.9269 18 12 18C9.55122 18 7.11281 17.3191 5.15267 16.2358C3.21891 15.1671 1.6052 13.6216 1.04403 11.7935C0.985325 11.6022 0.985325 11.3978 1.04403 11.2065C1.6052 9.37843 3.21891 7.83286 5.15267 6.76419Z" fill="#7B8896"/>
</svg>
